<svg xmlns="http://www.w3.org/2000/svg" width="19" height="19" viewBox="0 0 19 19">
  <g id="Grupo_130" data-name="Grupo 130" transform="translate(-4024 -137.254)">
    <g id="Grupo_113" data-name="Grupo 113" transform="translate(4024 137.254)">
      <g id="information">
        <g id="Grupo_112" data-name="Grupo 112">
          <g id="Grupo_111" data-name="Grupo 111">
            <g id="Grupo_110" data-name="Grupo 110">
              <g id="Grupo_115" data-name="Grupo 115">
                <circle id="Elipse_6" data-name="Elipse 6" cx="0.928" cy="0.928" r="0.928" transform="translate(8.572 13.118)" fill="#fff"/>
                <path id="Caminho_402" data-name="Caminho 402" d="M9.5,0A9.5,9.5,0,1,0,19,9.5,9.495,9.495,0,0,0,9.5,0Zm0,17.516A8.016,8.016,0,1,1,17.516,9.5,8.011,8.011,0,0,1,9.5,17.516Z" fill="#fff"/>
                <path id="Caminho_403" data-name="Caminho 403" d="M178.969,128.5A2.972,2.972,0,0,0,176,131.469a.742.742,0,1,0,1.484,0,1.484,1.484,0,1,1,1.484,1.484.742.742,0,0,0-.742.742v1.855a.742.742,0,0,0,1.484,0v-1.207a2.969,2.969,0,0,0-.742-5.844Z" transform="translate(-169.469 -123.731)" fill="#fff"/>
              </g>
            </g>
          </g>
        </g>
      </g>
    </g>
  </g>
</svg>
